<mxfile host="app.diagrams.net" modified="2022-04-25T15:45:15.667Z" agent="5.0 (Windows NT 10.0; Win64; x64) AppleWebKit/537.36 (KHTML, like Gecko) Chrome/100.0.4896.127 Safari/537.36" etag="CCZddiuyxt76o1Njis6a" version="17.4.6" type="github">
  <diagram id="kgpKYQtTHZ0yAKxKKP6v" name="Page-1">
    <mxGraphModel dx="1038" dy="489" grid="1" gridSize="10" guides="1" tooltips="1" connect="1" arrows="1" fold="1" page="1" pageScale="1" pageWidth="850" pageHeight="1100" math="0" shadow="0">
      <root>
        <mxCell id="0" />
        <mxCell id="1" parent="0" />
        <mxCell id="rGdGtoqn0B291sVdq1pi-2" value="Employeur" style="shape=umlActor;verticalLabelPosition=bottom;verticalAlign=top;html=1;outlineConnect=0;" vertex="1" parent="1">
          <mxGeometry x="50" y="80" width="30" height="60" as="geometry" />
        </mxCell>
        <mxCell id="rGdGtoqn0B291sVdq1pi-3" value="" style="endArrow=none;dashed=1;html=1;dashPattern=1 3;strokeWidth=2;rounded=0;" edge="1" parent="1" target="rGdGtoqn0B291sVdq1pi-2">
          <mxGeometry width="50" height="50" relative="1" as="geometry">
            <mxPoint x="65" y="500" as="sourcePoint" />
            <mxPoint x="60" y="170" as="targetPoint" />
            <Array as="points" />
          </mxGeometry>
        </mxCell>
        <mxCell id="rGdGtoqn0B291sVdq1pi-4" value="" style="endArrow=classic;html=1;rounded=0;entryX=-0.26;entryY=0.068;entryDx=0;entryDy=0;entryPerimeter=0;" edge="1" parent="1" target="rGdGtoqn0B291sVdq1pi-32">
          <mxGeometry width="50" height="50" relative="1" as="geometry">
            <mxPoint x="70" y="255" as="sourcePoint" />
            <mxPoint x="350" y="210" as="targetPoint" />
          </mxGeometry>
        </mxCell>
        <mxCell id="rGdGtoqn0B291sVdq1pi-5" value="verifStatus()" style="text;html=1;align=center;verticalAlign=middle;resizable=0;points=[];autosize=1;strokeColor=none;fillColor=none;" vertex="1" parent="1">
          <mxGeometry x="90" y="233" width="80" height="20" as="geometry" />
        </mxCell>
        <mxCell id="rGdGtoqn0B291sVdq1pi-31" value="s:Status" style="shape=umlLifeline;perimeter=lifelinePerimeter;container=1;collapsible=0;recursiveResize=0;rounded=0;shadow=0;strokeWidth=1;" vertex="1" parent="1">
          <mxGeometry x="130" y="140" width="110" height="360" as="geometry" />
        </mxCell>
        <mxCell id="rGdGtoqn0B291sVdq1pi-32" value="" style="points=[];perimeter=orthogonalPerimeter;rounded=0;shadow=0;strokeWidth=1;" vertex="1" parent="rGdGtoqn0B291sVdq1pi-31">
          <mxGeometry x="50" y="105" width="10" height="150" as="geometry" />
        </mxCell>
        <mxCell id="rGdGtoqn0B291sVdq1pi-65" value="l&#39;annonce à bien été créé" style="text;html=1;align=center;verticalAlign=middle;resizable=0;points=[];autosize=1;strokeColor=none;fillColor=none;" vertex="1" parent="rGdGtoqn0B291sVdq1pi-31">
          <mxGeometry x="65" y="330" width="150" height="20" as="geometry" />
        </mxCell>
        <mxCell id="rGdGtoqn0B291sVdq1pi-50" value="[s.isEntreprise()]" style="text;align=center;fontStyle=1;verticalAlign=middle;spacingLeft=3;spacingRight=3;strokeColor=none;rotatable=0;points=[[0,0.5],[1,0.5]];portConstraint=eastwest;" vertex="1" parent="rGdGtoqn0B291sVdq1pi-31">
          <mxGeometry x="130" y="105" width="80" height="26" as="geometry" />
        </mxCell>
        <mxCell id="rGdGtoqn0B291sVdq1pi-79" value="" style="edgeStyle=segmentEdgeStyle;endArrow=classic;html=1;rounded=0;exitX=1.14;exitY=0.573;exitDx=0;exitDy=0;exitPerimeter=0;" edge="1" parent="rGdGtoqn0B291sVdq1pi-31">
          <mxGeometry width="50" height="50" relative="1" as="geometry">
            <mxPoint x="61.95000000000009" y="233.95000000000005" as="sourcePoint" />
            <mxPoint x="240" y="234" as="targetPoint" />
          </mxGeometry>
        </mxCell>
        <mxCell id="rGdGtoqn0B291sVdq1pi-77" value="[e.informationIsNotValid()]" style="text;align=center;fontStyle=1;verticalAlign=middle;spacingLeft=3;spacingRight=3;strokeColor=none;rotatable=0;points=[[0,0.5],[1,0.5]];portConstraint=eastwest;" vertex="1" parent="rGdGtoqn0B291sVdq1pi-31">
          <mxGeometry x="120" y="167" width="80" height="26" as="geometry" />
        </mxCell>
        <mxCell id="rGdGtoqn0B291sVdq1pi-84" value="Alt" style="shape=umlFrame;whiteSpace=wrap;html=1;" vertex="1" parent="rGdGtoqn0B291sVdq1pi-31">
          <mxGeometry x="80" y="140" width="190" height="106" as="geometry" />
        </mxCell>
        <mxCell id="rGdGtoqn0B291sVdq1pi-51" value="e:Entreprise" style="shape=umlLifeline;perimeter=lifelinePerimeter;container=1;collapsible=0;recursiveResize=0;rounded=0;shadow=0;strokeWidth=1;" vertex="1" parent="1">
          <mxGeometry x="310" y="140" width="140" height="360" as="geometry" />
        </mxCell>
        <mxCell id="rGdGtoqn0B291sVdq1pi-52" value="" style="points=[];perimeter=orthogonalPerimeter;rounded=0;shadow=0;strokeWidth=1;" vertex="1" parent="rGdGtoqn0B291sVdq1pi-51">
          <mxGeometry x="65" y="100" width="10" height="180" as="geometry" />
        </mxCell>
        <mxCell id="rGdGtoqn0B291sVdq1pi-81" value="e.updateEtreprise()" style="text;align=center;fontStyle=0;verticalAlign=middle;spacingLeft=3;spacingRight=3;strokeColor=none;rotatable=0;points=[[0,0.5],[1,0.5]];portConstraint=eastwest;" vertex="1" parent="rGdGtoqn0B291sVdq1pi-51">
          <mxGeometry x="-44" y="205" width="80" height="26" as="geometry" />
        </mxCell>
        <mxCell id="rGdGtoqn0B291sVdq1pi-49" value="Alt" style="shape=umlFrame;whiteSpace=wrap;html=1;" vertex="1" parent="rGdGtoqn0B291sVdq1pi-51">
          <mxGeometry x="-140" y="70" width="240" height="190" as="geometry" />
        </mxCell>
        <mxCell id="rGdGtoqn0B291sVdq1pi-58" value="a:Annonce" style="shape=umlLifeline;perimeter=lifelinePerimeter;container=1;collapsible=0;recursiveResize=0;rounded=0;shadow=0;strokeWidth=1;" vertex="1" parent="1">
          <mxGeometry x="470" y="140" width="150" height="400" as="geometry" />
        </mxCell>
        <mxCell id="rGdGtoqn0B291sVdq1pi-59" value="" style="points=[];perimeter=orthogonalPerimeter;rounded=0;shadow=0;strokeWidth=1;" vertex="1" parent="rGdGtoqn0B291sVdq1pi-58">
          <mxGeometry x="70" y="220" width="10" height="180" as="geometry" />
        </mxCell>
        <mxCell id="rGdGtoqn0B291sVdq1pi-73" value="sendMailValidation()" style="text;html=1;align=center;verticalAlign=middle;resizable=0;points=[];autosize=1;strokeColor=none;fillColor=none;" vertex="1" parent="rGdGtoqn0B291sVdq1pi-58">
          <mxGeometry x="100" y="302" width="120" height="20" as="geometry" />
        </mxCell>
        <mxCell id="rGdGtoqn0B291sVdq1pi-72" value="" style="edgeStyle=segmentEdgeStyle;endArrow=classic;html=1;rounded=0;" edge="1" parent="rGdGtoqn0B291sVdq1pi-58">
          <mxGeometry width="50" height="50" relative="1" as="geometry">
            <mxPoint x="80" y="324" as="sourcePoint" />
            <mxPoint x="226.60000000000002" y="324.05" as="targetPoint" />
          </mxGeometry>
        </mxCell>
        <mxCell id="rGdGtoqn0B291sVdq1pi-61" value="" style="edgeStyle=segmentEdgeStyle;endArrow=classic;html=1;rounded=0;exitX=1.14;exitY=0.573;exitDx=0;exitDy=0;exitPerimeter=0;" edge="1" parent="1">
          <mxGeometry width="50" height="50" relative="1" as="geometry">
            <mxPoint x="386.4000000000001" y="409.95000000000005" as="sourcePoint" />
            <mxPoint x="539.5" y="409.95000000000005" as="targetPoint" />
          </mxGeometry>
        </mxCell>
        <mxCell id="rGdGtoqn0B291sVdq1pi-60" value="createAnnonce()" style="text;align=center;fontStyle=0;verticalAlign=middle;spacingLeft=3;spacingRight=3;strokeColor=none;rotatable=0;points=[[0,0.5],[1,0.5]];portConstraint=eastwest;" vertex="1" parent="1">
          <mxGeometry x="440" y="379" width="80" height="26" as="geometry" />
        </mxCell>
        <mxCell id="rGdGtoqn0B291sVdq1pi-70" value="m:Message" style="shape=umlLifeline;perimeter=lifelinePerimeter;container=1;collapsible=0;recursiveResize=0;rounded=0;shadow=0;strokeWidth=1;" vertex="1" parent="1">
          <mxGeometry x="630" y="140" width="140" height="360" as="geometry" />
        </mxCell>
        <mxCell id="rGdGtoqn0B291sVdq1pi-64" value="" style="edgeStyle=segmentEdgeStyle;endArrow=classic;html=1;rounded=0;dashed=1;" edge="1" parent="1">
          <mxGeometry width="50" height="50" relative="1" as="geometry">
            <mxPoint x="560" y="500" as="sourcePoint" />
            <mxPoint x="80" y="500" as="targetPoint" />
            <Array as="points">
              <mxPoint x="90" y="500" />
              <mxPoint x="90" y="500" />
            </Array>
          </mxGeometry>
        </mxCell>
        <mxCell id="rGdGtoqn0B291sVdq1pi-71" value="" style="points=[];perimeter=orthogonalPerimeter;rounded=0;shadow=0;strokeWidth=1;" vertex="1" parent="1">
          <mxGeometry x="695" y="460" width="10" height="70" as="geometry" />
        </mxCell>
      </root>
    </mxGraphModel>
  </diagram>
</mxfile>
